# xmcd
#
# Track frame offsets: 
#        150
#        19542
#        36111
#        55811
#        80409
#        99944
#        117504
#        138273
#        153223
#        169981
#        189030
#
# Disc length: 2752 seconds
#
# Revision: 1
# Processed by: cddbd v1.5.2PL0 Copyright (c) Steve Scherf et al.
# Submitted via: ExactAudioCopy v0.95a5
#
DISCID=7c0abe0b
DTITLE=Kara Maguire - Nobody's Girl
DYEAR=2007
DGENRE=Blues/Rock
TTITLE0=I Got It Bad
TTITLE1=Let It Ride
TTITLE2=Womans Lib
TTITLE3=Nobody's Girl
TTITLE4=Blues Ain't Dead
TTITLE5=I Tried
TTITLE6=tranded
TTITLE7=Do It Right
TTITLE8=Dnr
TTITLE9=Nobody's Clown
TTITLE10=Drive Me Crazy
EXTD=
EXTT0=
EXTT1=
EXTT2=
EXTT3=
EXTT4=
EXTT5=
EXTT6=
EXTT7=
EXTT8=
EXTT9=
EXTT10=
PLAYORDER=
